<?xml version="1.0" encoding="UTF-8"?>
<!--Generator: Apple Native CoreSVG 360-->
<!DOCTYPE svg
PUBLIC "-//W3C//DTD SVG 1.1//EN"
       "http://www.w3.org/Graphics/SVG/1.1/DTD/svg11.dtd">
<svg version="1.1" xmlns="http://www.w3.org/2000/svg" xmlns:xlink="http://www.w3.org/1999/xlink" viewBox="0 0 600.22 582.602">
 <g>
  <rect height="582.602" opacity="0" width="600.22" x="0" y="0"/>
  <path d="M435.818 84.4265L398.01 122.234L185.852 122.234C145.813 122.234 123.108 144.939 123.108 184.978L123.108 413.494C123.108 453.777 145.813 476.238 185.852 476.238L414.368 476.238C454.651 476.238 477.112 453.777 477.112 413.494L477.112 203.239L515.089 165.193C516.001 171.482 516.418 178.185 516.418 185.222L516.418 413.494C516.418 479.167 480.042 515.544 414.368 515.544L185.852 515.544C120.422 515.544 83.8013 479.167 83.8013 413.494L83.8013 185.222C83.8013 119.548 120.422 82.9271 185.852 82.9271L414.368 82.9271C421.925 82.9271 429.094 83.412 435.818 84.4265Z" fill="white" fill-opacity="0.85"/>
  <path d="M249.329 357.341L296.936 336.589L524.963 108.806L491.516 75.847L263.733 303.63L241.76 349.529C239.807 353.679 244.69 359.294 249.329 357.341ZM543.03 90.9837L560.608 72.9173C568.909 64.1283 568.909 52.4095 560.608 44.3529L554.993 38.4935C547.424 30.9251 535.461 31.9017 527.405 39.7142L509.583 57.2923Z" fill="white" fill-opacity="0.85"/>
 </g>
</svg>
